<?xml version="1.0" encoding="UTF-8"?>
<svg version="1.1" xmlns="http://www.w3.org/2000/svg" width="600" height="600">
<path d="M0 0 C1.62641904 1.54016954 3.25159149 3.08165755 4.875 4.625 C6.16072032 5.73608508 7.4520735 6.84069847 8.75 7.9375 C18.37660351 16.33854003 26.99876583 25.57342497 34.875 35.625 C35.90560547 36.88957031 35.90560547 36.88957031 36.95703125 38.1796875 C40.86728803 42.97965854 44.5555924 47.87304518 48.0546875 52.98046875 C49.28659465 54.77017077 50.54269652 56.5434179 51.8203125 58.30078125 C73.52475973 88.53483597 88.06343763 122.82512208 99.8125 157.9375 C100.04606201 158.63333191 100.27962402 159.32916382 100.52026367 160.04608154 C108.1204902 182.78816313 108.1204902 182.78816313 107.875 191.625 C107.30467041 191.82657715 106.73434082 192.0281543 106.14672852 192.23583984 C103.57426105 193.14976003 101.00590033 194.07471496 98.4375 195 C97.09075195 195.47566406 97.09075195 195.47566406 95.71679688 195.9609375 C94.86279297 196.2703125 94.00878906 196.5796875 93.12890625 196.8984375 C92.33814697 197.18122559 91.5473877 197.46401367 90.73266602 197.75537109 C88.69035797 198.47723956 88.69035797 198.47723956 87.875 200.625 C86.26782227 201.52294922 86.26782227 201.52294922 84.19140625 202.4296875 C83.43263184 202.76419922 82.67385742 203.09871094 81.89208984 203.44335938 C81.0820752 203.79205078 80.27206055 204.14074219 79.4375 204.5 C78.6223291 204.85642578 77.8071582 205.21285156 76.96728516 205.58007812 C71.31430713 208.03955633 65.63477055 210.42528863 59.875 212.625 C58.4977113 209.33425986 57.40782691 206.10965277 56.53515625 202.65234375 C45.35031816 159.77594146 25.72943884 119.63865328 -2.875 85.6875 C-3.54656128 84.89001343 -3.54656128 84.89001343 -4.23168945 84.07641602 C-6.38230868 81.55611545 -8.57792688 79.18395932 -10.953125 76.87109375 C-13.125 74.625 -13.125 74.625 -13.125 72.625 C-13.681875 72.398125 -14.23875 72.17125 -14.8125 71.9375 C-17.12478875 70.6251199 -18.70529346 69.12530857 -20.54296875 67.2265625 C-49.92085586 37.48598542 -91.35143511 19.5471673 -133.003479 19.26309204 C-133.74483093 19.25877167 -134.48618286 19.25445129 -135.25 19.25 C-136.32166412 19.23808121 -136.32166412 19.23808121 -137.41497803 19.22592163 C-147.98627956 19.13569694 -157.81520724 20.31012803 -168.125 22.625 C-169.06633789 22.83334473 -170.00767578 23.04168945 -170.97753906 23.25634766 C-210.03986853 32.45243031 -245.03875752 58.11077691 -269.9375 89.125 C-270.659375 89.95 -271.38125 90.775 -272.125 91.625 C-272.785 91.625 -273.445 91.625 -274.125 91.625 C-275.32666016 90.05541992 -275.32666016 90.05541992 -276.6640625 87.85546875 C-277.405354 86.65337769 -277.405354 86.65337769 -278.16162109 85.42700195 C-278.94786865 84.13282349 -278.94786865 84.13282349 -279.75 82.8125 C-284.73982592 74.74977171 -289.89360202 66.99214139 -295.76953125 59.5390625 C-300.77693826 53.12451073 -304.16983697 46.18753085 -307.125 38.625 C-306.48433594 37.92375 -305.84367187 37.2225 -305.18359375 36.5 C-304.31863281 35.55125 -303.45367187 34.6025 -302.5625 33.625 C-301.71558594 32.696875 -300.86867188 31.76875 -299.99609375 30.8125 C-297.88485555 28.48671717 -295.82306553 26.12290719 -293.76953125 23.74609375 C-284.48179451 13.11023906 -274.31869281 3.23177834 -263.125 -5.375 C-262.135 -6.17035156 -261.145 -6.96570313 -260.125 -7.78515625 C-242.72023919 -21.67603916 -223.04116119 -32.75490282 -202.125 -40.375 C-200.9596875 -40.80425781 -199.794375 -41.23351562 -198.59375 -41.67578125 C-130.46717141 -65.59413439 -53.38559666 -48.46560357 0 0 Z " fill="#B3AFA9" transform="translate(425.125,257.375)"/>
<path d="M0 0 C4.22753976 3.14561015 7.57421371 6.45021924 10.6875 10.6875 C11.18894531 11.33074219 11.69039062 11.97398437 12.20703125 12.63671875 C23.17842235 27.66335821 26.52466954 49.46011731 24.18359375 67.58984375 C22.07554765 80.9825141 17.54973549 92.57382601 9.6875 103.6875 C8.945 104.76 8.2025 105.8325 7.4375 106.9375 C3.3481732 111.0268268 -1.29092689 113.85884715 -6.3125 116.6875 C-6.96089844 117.05359375 -7.60929688 117.4196875 -8.27734375 117.796875 C-15.44077732 121.11995578 -24.66232988 120.80581537 -32.1875 118.99609375 C-34.69428305 118.05996696 -36.96739695 116.97365513 -39.3125 115.6875 C-40.05757812 115.30980469 -40.80265625 114.93210937 -41.5703125 114.54296875 C-52.71897881 108.114034 -61.03233362 94.92848899 -64.4609375 82.7578125 C-70.43470829 60.20203527 -70.02464002 37.55504946 -58.6796875 16.68359375 C-55.17607974 10.909711 -51.26149344 6.24809142 -46.3125 1.6875 C-45.69375 0.965625 -45.075 0.24375 -44.4375 -0.5 C-31.53040635 -11.50899164 -13.15164912 -8.71542121 0 0 Z " fill="#B3AFA9" transform="translate(552.3125,188.3125)"/>
<path d="M0 0 C1.64752167 0.64694838 3.30572676 1.26654722 4.96533203 1.88183594 C20.60124256 7.94693466 34.24764271 16.95138081 47.23388672 27.43603516 C48.57018514 28.49716633 49.95171363 29.50111609 51.34423828 30.48730469 C51.84697266 30.89851563 52.34970703 31.30972656 52.86767578 31.73339844 C52.86767578 32.39339844 52.86767578 33.05339844 52.86767578 33.73339844 C53.44904297 33.98863281 54.03041016 34.24386719 54.62939453 34.50683594 C60.77369347 37.87386886 65.47797823 44.29392368 69.98779297 49.56420898 C71.84304163 51.70497318 73.74537405 53.79541102 75.65283203 55.88964844 C79.72296005 60.4674896 83.31958466 65.26369421 86.80517578 70.29589844 C87.4092627 71.16504883 88.01334961 72.03419922 88.63574219 72.9296875 C93.89971181 80.60297335 98.58737831 88.47559644 102.86767578 96.73339844 C103.22055664 97.41418457 103.5734375 98.0949707 103.93701172 98.79638672 C109.94725409 110.47692562 115.56013092 122.2206444 119.80517578 134.67089844 C120.14218506 135.65364746 120.47919434 136.63639648 120.82641602 137.64892578 C123.10672772 144.36003449 125.32414979 151.09051415 127.43017578 157.85839844 C127.6937085 158.68073975 127.95724121 159.50308105 128.22875977 160.3503418 C128.46151611 161.11870361 128.69427246 161.88706543 128.93408203 162.67871094 C129.24261108 163.67668701 129.24261108 163.67668701 129.55737305 164.69482422 C129.96606545 167.37978216 129.76461944 169.16409393 128.86767578 171.73339844 C126.91821289 173.12719727 126.91821289 173.12719727 124.39501953 174.19042969 C123.49589844 174.58037109 122.59677734 174.9703125 121.67041016 175.37207031 C120.72488281 175.75943359 119.77935547 176.14679688 118.80517578 176.54589844 C117.85578125 176.95259766 116.90638672 177.35929688 115.92822266 177.77832031 C113.58142724 178.78072036 111.2285257 179.7646741 108.86767578 180.73339844 C105.74399731 178.16036301 104.85602371 175.43249288 103.60595703 171.63964844 C103.20957031 170.4446875 102.81318359 169.24972656 102.40478516 168.01855469 C102.00066406 166.76945313 101.59654297 165.52035156 101.18017578 164.23339844 C100.76445312 162.98429688 100.34873047 161.73519531 99.92041016 160.44824219 C96.86767578 151.15469616 96.86767578 151.15469616 96.86767578 147.73339844 C96.20767578 147.40339844 95.54767578 147.07339844 94.86767578 146.73339844 C94.1366765 144.98813766 93.48576493 143.20926667 92.86767578 141.42089844 C85.21674917 121.01099217 73.918818 101.9576261 60.41455078 84.88574219 C58.86767578 82.73339844 58.86767578 82.73339844 58.86767578 80.73339844 C58.20767578 80.73339844 57.54767578 80.73339844 56.86767578 80.73339844 C55.42236328 79.08105469 55.42236328 79.08105469 53.74267578 76.79589844 C47.00111598 67.9048558 39.70886837 60.23598439 30.86767578 53.42089844 C29.87767578 52.58558594 29.87767578 52.58558594 28.86767578 51.73339844 C28.86767578 51.07339844 28.86767578 50.41339844 28.86767578 49.73339844 C28.13419922 49.47429687 27.40072266 49.21519531 26.64501953 48.94824219 C23.79177905 47.70020029 21.81952689 46.27637663 19.43017578 44.29589844 C16.02351995 41.56145897 12.86373009 39.47526827 8.86767578 37.73339844 C8.86767578 37.07339844 8.86767578 36.41339844 8.86767578 35.73339844 C8.18705078 35.47945313 7.50642578 35.22550781 6.80517578 34.96386719 C4.04621545 33.80818567 1.44415675 32.47511068 -1.19311523 31.06811523 C-30.63105829 15.55046856 -65.61302129 10.05063033 -98.13232422 17.73339844 C-100.00017578 18.15105469 -100.00017578 18.15105469 -101.90576172 18.57714844 C-121.67623231 23.38506162 -141.47050682 32.59259793 -157.13232422 45.73339844 C-157.46232422 46.39339844 -157.79232422 47.05339844 -158.13232422 47.73339844 C-159.82608811 48.66330803 -161.52035338 49.59232786 -163.21826172 50.51464844 C-165.25899796 51.814056 -166.77446839 53.23898742 -168.44482422 54.98339844 C-169.77513672 56.34464844 -169.77513672 56.34464844 -171.13232422 57.73339844 C-171.79232422 57.73339844 -172.45232422 57.73339844 -173.13232422 57.73339844 C-172.13232422 55.73339844 -171.13232422 53.73339844 -170.13232422 51.73339844 C-169.47232422 51.73339844 -168.81232422 51.73339844 -168.13232422 51.73339844 C-167.87902344 51.15775146 -167.62572266 50.58210449 -167.36474609 49.98901367 C-153.89604833 25.33820174 -119.43909764 7.9795268 -94.13232422 -1.26660156 C-93.24158203 -1.64300781 -92.35083984 -2.01941406 -91.43310547 -2.40722656 C-63.73880514 -13.77334063 -27.33212003 -10.73643365 0 0 Z " fill="#FC0B11" transform="translate(339.13232421875,307.2666015625)"/>
<path d="M0 0 C11.91550602 0.78579476 21.38008842 4.02811928 30.0625 12.4453125 C42.41766481 26.85967145 46.11263016 44.57006335 45.3828125 63.15234375 C43.93085546 78.31518624 38.45753532 94.27531525 26.70703125 104.62890625 C18.62908375 110.29696488 10.33699689 113.24468856 0.3828125 112.15234375 C-11.76710006 109.12782782 -19.6883833 102.41173194 -26.6171875 92.15234375 C-35.77415878 76.1632281 -37.70681988 55.21868953 -32.9921875 37.46484375 C-32.25828169 35.33984122 -31.46810759 33.23325424 -30.6171875 31.15234375 C-30.19308594 30.10949219 -29.76898438 29.06664062 -29.33203125 27.9921875 C-24.35855143 17.03390746 -17.24382866 9.57805785 -6.90234375 3.52734375 C-1.15153793 0.06702982 -1.15153793 0.06702982 0 0 Z " fill="#B3AFA9" transform="translate(414.6171875,85.84765625)"/>
<path d="M0 0 C7.69078664 5.20954123 12.36176644 12.38483051 15.796875 20.89453125 C16.1165625 21.65507813 16.43625 22.415625 16.765625 23.19921875 C21.34017844 36.45695232 20.65588094 54.17006436 14.796875 66.89453125 C12.9937038 70.38516213 11.01861073 73.65627534 8.796875 76.89453125 C8.19875 77.80203125 7.600625 78.70953125 6.984375 79.64453125 C3.68700672 83.03611006 -0.21334017 85.38897577 -4.203125 87.89453125 C-5.193125 88.55453125 -6.183125 89.21453125 -7.203125 89.89453125 C-17.82408107 91.48385417 -25.68464385 88.53291916 -34.26171875 82.4296875 C-45.24134494 72.81945789 -47.89255246 57.95248704 -49.515625 44.2578125 C-50.2205562 31.28267262 -45.53277281 16.50042169 -37.28515625 6.58984375 C-26.62149804 -4.67196937 -13.91116686 -7.69438892 0 0 Z " fill="#B3AFA9" transform="translate(304.203125,64.10546875)"/>
<path d="M0 0 C9.37577999 7.64978413 14.13235009 17.4493702 15.71875 29.40234375 C16.89182381 41.70286055 14.43770938 54.1073177 6.90625 64.08984375 C2.47211689 68.9863818 -1.47856362 72.88448793 -8.20703125 73.80078125 C-16.80002685 74.07901025 -23.20129102 72.07543554 -29.58203125 66.25390625 C-38.85970889 56.14443682 -41.07261078 43.82254823 -40.6328125 30.56640625 C-39.9060596 19.11089836 -34.51417734 8.70871902 -26.22265625 0.8828125 C-18.69072534 -4.86085312 -7.96279529 -5.2772299 0 0 Z " fill="#B3AFAA" transform="translate(171.28125,107.59765625)"/>
<path d="M0 0 C6.15717359 2.90432717 11.02595782 8.41615115 13.8125 14.625 C17.35759264 24.70052645 17.54277302 36.23206316 13 46 C12.70996094 46.63550781 12.41992188 47.27101563 12.12109375 47.92578125 C9.22087033 53.59274501 5.44452656 57.02218938 -0.4375 59.375 C-6.6865458 60.47132383 -11.66419001 59.40583616 -17 56 C-23.84747017 49.86972122 -26.86996324 41.99912227 -27.875 33 C-28.35668046 23.583147 -26.41527353 14.84606963 -21 7 C-14.39447233 0.7494719 -9.0338826 -0.89698125 0 0 Z " fill="#B3AFAA" transform="translate(54,215)"/>
<path d="M0 0 C0 0.66 0 1.32 0 2 C-3.63 2.99 -7.26 3.98 -11 5 C-11 5.66 -11 6.32 -11 7 C-8.03 7.99 -5.06 8.98 -2 10 C-2 10.99 -2 11.98 -2 13 C-1.030625 12.814375 -0.06125 12.62875 0.9375 12.4375 C1.948125 12.293125 2.95875 12.14875 4 12 C4.495 12.495 4.495 12.495 5 13 C7.21978121 13.14683746 9.4439837 13.22758089 11.66796875 13.28125 C12.34040115 13.29965942 13.01283356 13.31806885 13.7056427 13.33703613 C15.86617039 13.39594128 18.02678114 13.4486172 20.1875 13.5 C22.33035641 13.55158862 24.47311348 13.60468433 26.61579895 13.66296387 C28.57343199 13.71618012 30.53122234 13.76351285 32.48901367 13.81054688 C35.73454725 13.98567615 38.80983208 14.39450852 42 15 C42 15.33 42 15.66 42 16 C41.11965088 15.98428955 40.23930176 15.9685791 39.33227539 15.95239258 C15.98663892 15.42495387 15.98663892 15.42495387 -7 19 C-8.23621094 19.2784375 -9.47242188 19.556875 -10.74609375 19.84375 C-30.52339687 24.61829144 -50.34187489 33.86229744 -66 47 C-66.33 47.66 -66.66 48.32 -67 49 C-68.6937639 49.92990959 -70.38802916 50.85892942 -72.0859375 51.78125 C-74.12667374 53.08065757 -75.64214417 54.50558899 -77.3125 56.25 C-78.6428125 57.61125 -78.6428125 57.61125 -80 59 C-80.66 59 -81.32 59 -82 59 C-81 57 -80 55 -79 53 C-78.34 53 -77.68 53 -77 53 C-76.74669922 52.42435303 -76.49339844 51.84870605 -76.23242188 51.25561523 C-65.34228714 31.32416618 -23.88202472 0 0 0 Z " fill="#F82229" transform="translate(248,306)"/>
<path d="M0 0 C0.33 1.32 0.66 2.64 1 4 C12.55 4 24.1 4 36 4 C36 4.66 36 5.32 36 6 C35.01 6.33 34.02 6.66 33 7 C33.99 7.33 34.98 7.66 36 8 C36 9.32 36 10.64 36 12 C31.08870815 12.02474682 26.17745273 12.04288223 21.26611328 12.05493164 C19.59585945 12.05995569 17.92561001 12.06677605 16.25537109 12.07543945 C13.85252804 12.08758946 11.44974321 12.09324763 9.046875 12.09765625 C8.30193787 12.10281754 7.55700073 12.10797882 6.78948975 12.11329651 C3.35819851 12.11366653 0.29491584 11.96603112 -3 11 C-3.99 11 -4.98 11 -6 11 C-6 10.01 -6 9.02 -6 8 C-9.58327753 6.99782936 -9.58327753 6.99782936 -13 8 C-13 7.34 -13 6.68 -13 6 C-13.99 5.67 -14.98 5.34 -16 5 C-11.46961032 -0.24571436 -6.49136014 -0.22004611 0 0 Z " fill="#FD070E" transform="translate(252,308)"/>
<path d="M0 0 C0 0.33 0 0.66 0 1 C-7.92 1.33 -15.84 1.66 -24 2 C-24 2.33 -24 2.66 -24 3 C-27.3 3.33 -30.6 3.66 -34 4 C-34 4.33 -34 4.66 -34 5 C-37.96 5 -41.92 5 -46 5 C-46 5.66 -46 6.32 -46 7 C-45.21625 6.814375 -44.4325 6.62875 -43.625 6.4375 C-38.96066559 5.87456309 -34.64022271 6.40392396 -30 7 C-30 6.34 -30 5.68 -30 5 C-26.37 5 -22.74 5 -19 5 C-18.505 6.98 -18.505 6.98 -18 9 C-29.55 9 -41.1 9 -53 9 C-53 8.34 -53 7.68 -53 7 C-54.32 6.67 -55.64 6.34 -57 6 C-52.07238608 3.70942947 -47.38084317 2.18473032 -42 1.3125 C-40.82860474 1.12143677 -40.82860474 1.12143677 -39.63354492 0.92651367 C-26.57994053 -0.90770781 -13.14634501 -0.24599724 0 0 Z " fill="#FB313C" transform="translate(306,299)"/>
<path d="M0 0 C9.57 0 19.14 0 29 0 C29 0.99 29 1.98 29 3 C27.02 3.33 25.04 3.66 23 4 C23 4.66 23 5.32 23 6 C17.06 6.495 17.06 6.495 11 7 C10.67 6.34 10.34 5.68 10 5 C7.41394668 4.5316735 7.41394668 4.5316735 4.4375 4.375 C3.42558594 4.30023438 2.41367187 4.22546875 1.37109375 4.1484375 C0.19740234 4.07496094 0.19740234 4.07496094 -1 4 C-1 4.66 -1 5.32 -1 6 C-6.28 6 -11.56 6 -17 6 C-17 5.34 -17 4.68 -17 4 C-11.555 3.505 -11.555 3.505 -6 3 C-6 2.67 -6 2.34 -6 2 C-4.02 2 -2.04 2 0 2 C0 1.34 0 0.68 0 0 Z " fill="#FE070C" transform="translate(277,300)"/>
<path d="M0 0 C2.29633824 3.44450737 2.54016485 5.93812283 3 10 C0.46080994 11.29673602 -2.08114238 12.58747837 -4.625 13.875 C-5.33785156 14.23980469 -6.05070312 14.60460937 -6.78515625 14.98046875 C-10.78751837 17.00000927 -14.68917073 18.7081111 -19 20 C-21.72399099 14.16287645 -23.41039668 8.23440168 -25 2 C-24.34 2 -23.68 2 -23 2 C-23 3.32 -23 4.64 -23 6 C-22.34 6.33 -21.68 6.66 -21 7 C-20.236875 7.66 -19.47375 8.32 -18.6875 9 C-15.96448252 11.02643161 -14.32060309 11.6205025 -11 12 C-10.67 11.01 -10.34 10.02 -10 9 C-8.35 9.66 -6.7 10.32 -5 11 C-5 10.67 -5 10.34 -5 10 C-3.02 10 -1.04 10 1 10 C0.505 5.05 0.505 5.05 0 0 Z " fill="#F83943" transform="translate(466,468)"/>
<path d="M0 0 C0.66 0.33 1.32 0.66 2 1 C1 3 0 5 -1 7 C-0.01 7.33 0.98 7.66 2 8 C1.14535156 8.62648438 0.29070312 9.25296875 -0.58984375 9.8984375 C-1.70588611 10.72374614 -2.82176298 11.54927862 -3.9375 12.375 C-4.78344727 12.99375 -4.78344727 12.99375 -5.64648438 13.625 C-8.80848952 15.8769369 -8.80848952 15.8769369 -11 19 C-12.6937639 19.92990959 -14.38802916 20.85892942 -16.0859375 21.78125 C-18.12667374 23.08065757 -19.64214417 24.50558899 -21.3125 26.25 C-22.199375 27.1575 -23.08625 28.065 -24 29 C-24.66 29 -25.32 29 -26 29 C-25 27 -24 25 -23 23 C-22.34 23 -21.68 23 -21 23 C-20.75975098 22.4337793 -20.51950195 21.86755859 -20.27197266 21.28417969 C-18.73804889 18.52959413 -16.89273982 16.66750329 -14.6484375 14.453125 C-13.37226563 13.18662109 -13.37226563 13.18662109 -12.0703125 11.89453125 C-11.18085938 11.02183594 -10.29140625 10.14914062 -9.375 9.25 C-8.4778125 8.36183594 -7.580625 7.47367187 -6.65625 6.55859375 C-4.44192996 4.36783031 -2.22307565 2.18187237 0 0 Z " fill="#EF4247" transform="translate(192,336)"/>
<path d="M0 0 C0 0.66 0 1.32 0 2 C1.98 2 3.96 2 6 2 C6.33 2.66 6.66 3.32 7 4 C14.61111235 4.41938782 21.26737853 3.40492662 28.671875 1.66796875 C32.90831945 0.81769645 36.69740685 0.77745208 41 1 C41 1.33 41 1.66 41 2 C39.94683594 2.17015625 38.89367187 2.3403125 37.80859375 2.515625 C24.50020004 4.72514466 11.70342263 7.40865148 -0.609375 13.14453125 C-3 14 -3 14 -6 13 C-5.34 13 -4.68 13 -4 13 C-4.33 12.01 -4.66 11.02 -5 10 C-3.25 8 -3.25 8 -1 6 C0.32 6 1.64 6 3 6 C3 6.66 3 7.32 3 8 C3.99 7.67 4.98 7.34 6 7 C3.69 6.01 1.38 5.02 -1 4 C-1 3.34 -1 2.68 -1 2 C-1.99 1.67 -2.98 1.34 -4 1 C-2 0 -2 0 0 0 Z " fill="#F55057" transform="translate(217,320)"/>
<path d="M0 0 C0.66 0.33 1.32 0.66 2 1 C-0.475 4.465 -0.475 4.465 -3 8 C-2.67 8 -2.34 8 -2 8 C-1.01 8 -0.02 8 1 8 C1 7.34 1 6.68 1 6 C2.65 6 4.3 6 6 6 C6.33 6.66 6.66 7.32 7 8 C4.61072363 9.34640983 2.2147427 10.67709053 -0.1875 12 C-0.86103516 12.3815625 -1.53457031 12.763125 -2.22851562 13.15625 C-5.95219622 15.1906511 -8.62865388 16.54323525 -13 16 C-12.38770307 10.64240187 -10.1150468 7.70659608 -5.95703125 4.3515625 C-3.99173008 2.8697602 -2.01033747 1.41992283 0 0 Z " fill="#F4181F" transform="translate(204,327)"/>
<path d="M0 0 C1.32 0.66 2.64 1.32 4 2 C4 2.66 4 3.32 4 4 C5.65 3.34 7.3 2.68 9 2 C9 2.66 9 3.32 9 4 C10.32 4 11.64 4 13 4 C13 4.66 13 5.32 13 6 C13.99 6 14.98 6 16 6 C16.33 7.32 16.66 8.64 17 10 C14.83125748 9.49396008 13.00032373 9.00016187 11 8 C10.67 8.66 10.34 9.32 10 10 C6.20949594 9.70842276 3.64934335 9.45454034 0.5 7.25 C-1 5 -1 5 -0.75 2.25 C-0.5025 1.5075 -0.255 0.765 0 0 Z " fill="#FE050B" transform="translate(445,470)"/>
<path d="M0 0 C3.51233939 5.26850908 4.25153688 9.71157812 4 16 C3.34 16 2.68 16 2 16 C2 15.01 2 14.02 2 13 C-1.11785113 13.64644661 -1.11785113 13.64644661 -2 16 C-2.66 16 -3.32 16 -4 16 C-4 15.34 -4 14.68 -4 14 C-4.66 13.67 -5.32 13.34 -6 13 C-5.67 11.35 -5.34 9.7 -5 8 C-4.01 8 -3.02 8 -2 8 C-1.855625 6.865625 -1.71125 5.73125 -1.5625 4.5625 C-1 1 -1 1 0 0 Z " fill="#FB1D26" transform="translate(462,454)"/>
<path d="M0 0 C5.72303477 -0.23014885 10.80449617 0.60199994 16.375 1.875 C17.19355469 2.04902344 18.01210938 2.22304688 18.85546875 2.40234375 C20.92062608 2.86469241 22.96341219 3.42471643 25 4 C25.33 4.66 25.66 5.32 26 6 C23.36 6 20.72 6 18 6 C18 5.34 18 4.68 18 4 C17.33613281 4.17402344 16.67226563 4.34804688 15.98828125 4.52734375 C12.32402574 5.1069188 8.85991953 4.8682421 5.1875 4.5625 C4.14819336 4.48418945 4.14819336 4.48418945 3.08789062 4.40429688 C1.39145563 4.27560181 -0.30434863 4.13863816 -2 4 C-1.34 3.67 -0.68 3.34 0 3 C0 2.01 0 1.02 0 0 Z " fill="#EE3843" transform="translate(306,300)"/>
<path d="M0 0 C0 3 0 3 -1 5 C-0.34 5.33 0.32 5.66 1 6 C-1.11055281 9.16582922 -2.84823094 10.06040262 -6.12109375 11.81640625 C-8.15472959 13.09746999 -9.65286296 14.51696377 -11.3125 16.25 C-12.199375 17.1575 -13.08625 18.065 -14 19 C-14.66 19 -15.32 19 -16 19 C-14.5 16 -14.5 16 -13 13 C-12.34 13 -11.68 13 -11 13 C-10.76539063 12.43796875 -10.53078125 11.8759375 -10.2890625 11.296875 C-8.69337 8.45364109 -6.71075457 6.51901873 -4.375 4.25 C-3.55773437 3.45078125 -2.74046875 2.6515625 -1.8984375 1.828125 C-0.95871094 0.92320312 -0.95871094 0.92320312 0 0 Z " fill="#EC707F" transform="translate(182,346)"/>
<path d="M0 0 C1.65 0 3.3 0 5 0 C4.49396008 2.16874252 4.00016187 3.99967627 3 6 C4.32 6.33 5.64 6.66 7 7 C7 7.33 7 7.66 7 8 C3.7 8.33 0.4 8.66 -3 9 C-3.33 8.34 -3.66 7.68 -4 7 C-6.52733235 6.34444881 -6.52733235 6.34444881 -9 6 C-9 5.34 -9 4.68 -9 4 C-6.03 3.01 -3.06 2.02 0 1 C0 0.67 0 0.34 0 0 Z " fill="#FB0908" transform="translate(226,316)"/>
<path d="M0 0 C0.66 0.33 1.32 0.66 2 1 C2.99 0.67 3.98 0.34 5 0 C5 0.66 5 1.32 5 2 C6.65 2 8.3 2 10 2 C10 1.34 10 0.68 10 0 C12.31 0 14.62 0 17 0 C13.65834402 2.22777065 10.20158945 3.6892376 6.5 5.1875 C5.48486328 5.61579102 5.48486328 5.61579102 4.44921875 6.05273438 C-0.64605933 8.11798022 -0.64605933 8.11798022 -4 7 C-3.34 7 -2.68 7 -2 7 C-2.33 6.01 -2.66 5.02 -3 4 C-1.5625 1.8125 -1.5625 1.8125 0 0 Z " fill="#ED4748" transform="translate(215,326)"/>
<path d="M0 0 C0 0.66 0 1.32 0 2 C0.94875 2.103125 1.8975 2.20625 2.875 2.3125 C6 3 6 3 8 6 C7.236875 5.814375 6.47375 5.62875 5.6875 5.4375 C2.91032625 4.77180827 2.91032625 4.77180827 0 6 C0 5.34 0 4.68 0 4 C-4.455 5.485 -4.455 5.485 -9 7 C-9.33 6.01 -9.66 5.02 -10 4 C-6.58908673 0.88145073 -4.68377325 -0.53528837 0 0 Z " fill="#FA090E" transform="translate(216,322)"/>
<path d="M0 0 C4.95 0 9.9 0 15 0 C15 0.33 15 0.66 15 1 C17.475 1.495 17.475 1.495 20 2 C20 2.66 20 3.32 20 4 C20.9075 3.9175 21.815 3.835 22.75 3.75 C26.71037702 4.05464439 27.4184859 5.14911051 30 8 C29.34257812 7.82984375 28.68515625 7.6596875 28.0078125 7.484375 C18.7162688 5.11742349 9.3653245 3.04996547 0 1 C0 0.67 0 0.34 0 0 Z " fill="#EC676F" transform="translate(291,322)"/>
<path d="M0 0 C1.5625 1.0625 1.5625 1.0625 3 3 C2.6875 6.6875 2.6875 6.6875 2 10 C0.02 10.66 -1.96 11.32 -4 12 C-4 9.03 -4 6.06 -4 3 C-3.67 3.66 -3.34 4.32 -3 5 C-2.34 5 -1.68 5 -1 5 C-0.67 3.35 -0.34 1.7 0 0 Z " fill="#FB080C" transform="translate(423,377)"/>
<path d="M0 0 C0.99 0 1.98 0 3 0 C3 1.32 3 2.64 3 4 C3.66 4 4.32 4 5 4 C5 5.32 5 6.64 5 8 C5.99 8 6.98 8 8 8 C8.92091738 10.57856865 9.18506902 11.5943287 8.0234375 14.140625 C7.51683594 15.06101562 7.51683594 15.06101562 7 16 C5.82845707 13.71070947 4.66261926 11.41881638 3.5 9.125 C3.16613281 8.47402344 2.83226562 7.82304687 2.48828125 7.15234375 C0 2.2265625 0 2.2265625 0 0 Z " fill="#F83C4B" transform="translate(420,421)"/>
<path d="M0 0 C2.475 0.495 2.475 0.495 5 1 C4.67 2.65 4.34 4.3 4 6 C4.99 6 5.98 6 7 6 C7 6.66 7 7.32 7 8 C7.66 8 8.32 8 9 8 C9 10.31 9 12.62 9 15 C0 4.33333333 0 4.33333333 0 0 Z " fill="#F05156" transform="translate(407,400)"/>
<path d="M0 0 C3.66172475 0.62678171 6.8818995 1.64451846 10.3125 3.0625 C11.19550781 3.42472656 12.07851563 3.78695313 12.98828125 4.16015625 C13.65214844 4.43730469 14.31601562 4.71445312 15 5 C15 5.33 15 5.66 15 6 C11.04 6 7.08 6 3 6 C3 5.34 3 4.68 3 4 C2.01 3.67 1.02 3.34 0 3 C0 2.01 0 1.02 0 0 Z " fill="#F13943" transform="translate(333,306)"/>
<path d="M0 0 C0.66 0 1.32 0 2 0 C2 1.32 2 2.64 2 4 C2.66 4 3.32 4 4 4 C4.33 5.32 4.66 6.64 5 8 C5.99 8 6.98 8 8 8 C8 9.65 8 11.3 8 13 C7.01 13 6.02 13 5 13 C2 8.77777778 2 8.77777778 2 6 C1.34 5.67 0.68 5.34 0 5 C0 3.35 0 1.7 0 0 Z " fill="#F70F09" transform="translate(433,437)"/>
<path d="M0 0 C1.9375 0.625 1.9375 0.625 4 2 C4.75 5.125 4.75 5.125 5 8 C5.99 8 6.98 8 8 8 C8 8.66 8 9.32 8 10 C4.88740396 9.654156 3.17127187 9.12620033 0.625 7.25 C-1 5 -1 5 -0.75 2.25 C-0.5025 1.5075 -0.255 0.765 0 0 Z " fill="#F60D07" transform="translate(445,470)"/>
<path d="M0 0 C0.66 0 1.32 0 2 0 C2 1.32 2 2.64 2 4 C2.66 4.33 3.32 4.66 4 5 C6 7 6 7 6.1953125 9.1640625 C6.17210937 9.97617187 6.14890625 10.78828125 6.125 11.625 C6.10695313 12.44226563 6.08890625 13.25953125 6.0703125 14.1015625 C6.03550781 15.04128906 6.03550781 15.04128906 6 16 C6.99 16.33 7.98 16.66 9 17 C8.01 17.33 7.02 17.66 6 18 C3.27600901 12.16287645 1.58960332 6.23440168 0 0 Z " fill="#EF5A62" transform="translate(441,470)"/>
<path d="M0 0 C3.14703761 1.57351881 3.7416747 4.30201662 5.1875 7.4375 C5.73792969 8.61183594 6.28835938 9.78617187 6.85546875 10.99609375 C7.23316406 11.98738281 7.61085938 12.97867187 8 14 C7.67 14.66 7.34 15.32 7 16 C6.01 15.67 5.02 15.34 4 15 C2.875 12.125 2.875 12.125 2 9 C1.67 8.01 1.34 7.02 1 6 C0.42773651 3.90170055 0 2.17877079 0 0 Z " fill="#F64C52" transform="translate(441,404)"/>
<path d="M0 0 C0 1.32 0 2.64 0 4 C0.66 4.33 1.32 4.66 2 5 C2 5.99 2 6.98 2 8 C-1.24208567 7.64950425 -2.61527704 7.43778819 -4.8125 4.9375 C-5.4003125 3.9784375 -5.4003125 3.9784375 -6 3 C-3.375 0 -3.375 0 0 0 Z " fill="#F7090B" transform="translate(381,359)"/>
<path d="M0 0 C0 3.01082766 -0.00485799 5.15673711 -1 8 C-3.8125 9.625 -3.8125 9.625 -7 11 C-8.35863401 11.96534522 -9.70343137 12.95277149 -11 14 C-9.42219077 10.28954753 -7.09296752 7.70093616 -4.375 4.75 C-3.55773437 3.85796875 -2.74046875 2.9659375 -1.8984375 2.046875 C-1.27195313 1.37140625 -0.64546875 0.6959375 0 0 Z " fill="#B9BAB4" transform="translate(134,278)"/>
<path d="M0 0 C2.375 -0.1875 2.375 -0.1875 5 0 C5.66 0.99 6.32 1.98 7 3 C10.06556598 3.73343428 10.06556598 3.73343428 13 4 C12.67 5.32 12.34 6.64 12 8 C8.9168649 6.80100302 5.93720508 5.52299523 3 4 C3 3.34 3 2.68 3 2 C2.01 1.67 1.02 1.34 0 1 C0 0.67 0 0.34 0 0 Z " fill="#F35259" transform="translate(345,341)"/>
<path d="M0 0 C2.64 0 5.28 0 8 0 C7.34 1.32 6.68 2.64 6 4 C8.475 6.97 8.475 6.97 11 10 C7.81326038 8.59698853 5.67778594 6.92234929 3.25 4.4375 C2.63640625 3.81746094 2.0228125 3.19742187 1.390625 2.55859375 C0 1 0 1 0 0 Z " fill="#F25B5B" transform="translate(370,359)"/>
<path d="M0 0 C1.65 0 3.3 0 5 0 C5.33 0.66 5.66 1.32 6 2 C4.71086513 2.67154933 3.41859796 3.33708859 2.125 4 C1.40570313 4.37125 0.68640625 4.7425 -0.0546875 5.125 C-2 6 -2 6 -4 6 C-3.67 4.68 -3.34 3.36 -3 2 C-2.01 2 -1.02 2 0 2 C0 1.34 0 0.68 0 0 Z " fill="#F33541" transform="translate(205,333)"/>
<path d="M0 0 C0.66 0.33 1.32 0.66 2 1 C1.175 1.433125 0.35 1.86625 -0.5 2.3125 C-1.325 2.869375 -2.15 3.42625 -3 4 C-3 4.99 -3 5.98 -3 7 C-5.64 7 -8.28 7 -11 7 C-8.84658594 4.65082102 -6.78332063 3.17556996 -3.9375 1.75 C-3.24527344 1.39421875 -2.55304688 1.0384375 -1.83984375 0.671875 C-1.23269531 0.45015625 -0.62554687 0.2284375 0 0 Z " fill="#BAB9B6" transform="translate(208,223)"/>
<path d="M0 0 C0.66 0.33 1.32 0.66 2 1 C0.5486164 3.56165861 -0.94367243 5.8825934 -3 8 C-6.8125 8.9375 -6.8125 8.9375 -10 9 C-6.83047153 5.73991357 -3.60062011 2.77762123 0 0 Z " fill="#F1525F" transform="translate(204,327)"/>
<path d="M0 0 C0.61875 0.165 1.2375 0.33 1.875 0.5 C1.875 0.83 1.875 1.16 1.875 1.5 C-4.16003763 3.00875941 -10.02238369 2.14186094 -16.125 1.5 C-11.25701162 -1.74532559 -5.64218237 -0.90274918 0 0 Z " fill="#EE565C" transform="translate(280.125,300.5)"/>
<path d="M0 0 C2.31 0 4.62 0 7 0 C7.33 1.32 7.66 2.64 8 4 C8.99 4 9.98 4 11 4 C11 4.66 11 5.32 11 6 C6.95743617 4.77782954 3.50711041 3.37245704 0 1 C0 0.67 0 0.34 0 0 Z " fill="#E64347" transform="translate(334,335)"/>
<path d="M0 0 C0.99 0.33 1.98 0.66 3 1 C3 1.66 3 2.32 3 3 C3.8971875 3.37125 3.8971875 3.37125 4.8125 3.75 C7.28647521 5.16370012 8.43370255 6.65055383 10 9 C8.68 9 7.36 9 6 9 C5.67 7.68 5.34 6.36 5 5 C3.68 4.67 2.36 4.34 1 4 C0.67 2.68 0.34 1.36 0 0 Z " fill="#EA5F67" transform="translate(389,338)"/>
<path d="M0 0 C-0.24609375 1.890625 -0.24609375 1.890625 -1 4 C-2.84765625 5.046875 -2.84765625 5.046875 -5.0625 5.75 C-6.16271484 6.11351562 -6.16271484 6.11351562 -7.28515625 6.484375 C-8.13400391 6.73960937 -8.13400391 6.73960937 -9 7 C-9.66 6.34 -10.32 5.68 -11 5 C-9.54462432 4.16151196 -8.08559627 3.32936066 -6.625 2.5 C-5.81289062 2.0359375 -5.00078125 1.571875 -4.1640625 1.09375 C-2 0 -2 0 0 0 Z " fill="#EA444B" transform="translate(228,314)"/>
<path d="M0 0 C0.66 0.33 1.32 0.66 2 1 C1.278125 1.556875 0.55625 2.11375 -0.1875 2.6875 C-2.97457299 4.97909334 -5.48641528 7.41459857 -8 10 C-8.66 9.67 -9.32 9.34 -10 9 C-8.625 7.5 -8.625 7.5 -7 6 C-6.34 6 -5.68 6 -5 6 C-5.33 5.01 -5.66 4.02 -6 3 C-4.03533587 1.93224776 -2.03144641 0.93446535 0 0 Z " fill="#B8B4B1" transform="translate(409,89)"/>
<path d="M0 0 C6.875 3.75 6.875 3.75 8 6 C5.36 5.67 2.72 5.34 0 5 C-0.33 4.01 -0.66 3.02 -1 2 C-0.67 1.34 -0.34 0.68 0 0 Z " fill="#EC4B52" transform="translate(368,322)"/>
<path d="M0 0 C2.61724095 2.36797991 4.32861729 4.89600354 6 8 C6 8.66 6 9.32 6 10 C4.68 9.67 3.36 9.34 2 9 C2 7.35 2 5.7 2 4 C1.34 4 0.68 4 0 4 C0 2.68 0 1.36 0 0 Z " fill="#FC4656" transform="translate(435,394)"/>
<path d="M0 0 C0.99 0 1.98 0 3 0 C3.33 1.98 3.66 3.96 4 6 C2.35 5.67 0.7 5.34 -1 5 C-1.33 4.01 -1.66 3.02 -2 2 C-1.34 2 -0.68 2 0 2 C0 1.34 0 0.68 0 0 Z " fill="#FA0A07" transform="translate(434,398)"/>
<path d="M0 0 C2.97 0 5.94 0 9 0 C9 0.99 9 1.98 9 3 C9.66 3 10.32 3 11 3 C11 3.66 11 4.32 11 5 C9.53932801 4.54917531 8.08151968 4.08906463 6.625 3.625 C5.81289063 3.36976563 5.00078125 3.11453125 4.1640625 2.8515625 C2 2 2 2 0 0 Z " fill="#F15A63" transform="translate(322,330)"/>
<path d="M0 0 C0.80824219 0.19464844 1.61648437 0.38929688 2.44921875 0.58984375 C3.06410156 0.74582031 3.67898438 0.90179688 4.3125 1.0625 C4.3125 1.3925 4.3125 1.7225 4.3125 2.0625 C2.68835622 2.25727739 1.06313577 2.44309458 -0.5625 2.625 C-1.46742188 2.72941406 -2.37234375 2.83382813 -3.3046875 2.94140625 C-5.6875 3.0625 -5.6875 3.0625 -7.6875 2.0625 C-7.6875 1.4025 -7.6875 0.7425 -7.6875 0.0625 C-4.39053895 -1.03648702 -3.28255097 -0.80874444 0 0 Z " fill="#E90E19" transform="translate(253.6875,318.9375)"/>
<path d="M0 0 C4.571279 0.54855348 8.67435795 1.41744803 13 3 C13 3.33 13 3.66 13 4 C10.36 4 7.72 4 5 4 C4.67 3.34 4.34 2.68 4 2 C1.98330173 0.86649466 1.98330173 0.86649466 0 0 Z " fill="#F68186" transform="translate(319,302)"/>
<path d="M0 0 C2.64 0 5.28 0 8 0 C5.06171403 2.50298434 2.82097239 3.46930939 -1 4 C-0.67 2.68 -0.34 1.36 0 0 Z " fill="#F05E63" transform="translate(451,482)"/>
<path d="M0 0 C1.32 0.33 2.64 0.66 4 1 C3.67 2.32 3.34 3.64 3 5 C3.99 5.33 4.98 5.66 6 6 C5.67 7.65 5.34 9.3 5 11 C0 3.5 0 3.5 0 0 Z " fill="#F45557" transform="translate(430,442)"/>
<path d="M0 0 C1.64826111 2.96687001 2.44271087 5.65626525 3 9 C0.35247996 6.42215154 -1.94432065 4.08351902 -4 1 C-2.68 0.67 -1.36 0.34 0 0 Z " fill="#BCB9B4" transform="translate(426,341)"/>
<path d="M0 0 C-1.98 0.99 -1.98 0.99 -4 2 C-3.67 2.66 -3.34 3.32 -3 4 C-5.97 4 -8.94 4 -12 4 C-7.72679547 1.15119698 -5.21831143 -0.28990619 0 0 Z " fill="#EE747D" transform="translate(261,302)"/>
<path d="M0 0 C2.1640625 0.0234375 2.1640625 0.0234375 4.625 0.375 C5.85089844 0.54128906 5.85089844 0.54128906 7.1015625 0.7109375 C7.72804688 0.80632812 8.35453125 0.90171875 9 1 C5.01647791 3.30903272 2.49885947 2.86516528 -2 2 C-1.34 1.34 -0.68 0.68 0 0 Z " fill="#C5BFBC" transform="translate(412,86)"/>
<path d="M0 0 C0.66 0.33 1.32 0.66 2 1 C0.02 3.97 0.02 3.97 -2 7 C-2.66 6.67 -3.32 6.34 -4 6 C-4 5.01 -4 4.02 -4 3 C-2 1.3125 -2 1.3125 0 0 Z " fill="#F44D52" transform="translate(211,322)"/>
<path d="M0 0 C2.33944736 0.28730055 4.6739143 0.61936779 7 1 C4.66785852 2.20628008 2.50357861 3.1654738 0 4 C-0.33 3.01 -0.66 2.02 -1 1 C-0.67 0.67 -0.34 0.34 0 0 Z " fill="#B9B4B1" transform="translate(374,226)"/>
<path d="M0 0 C0.99 0.495 0.99 0.495 2 1 C2.6328125 3.06640625 2.6328125 3.06640625 3.125 5.5625 C3.29257812 6.38878906 3.46015625 7.21507812 3.6328125 8.06640625 C3.75398438 8.70449219 3.87515625 9.34257812 4 10 C3.34 8.68 2.68 7.36 2 6 C1.34 6 0.68 6 0 6 C0 4.02 0 2.04 0 0 Z " fill="#EB6C6D" transform="translate(452,427)"/>
<path d="M0 0 C2.475 0.495 2.475 0.495 5 1 C4.67 2.32 4.34 3.64 4 5 C3.01 4.67 2.02 4.34 1 4 C0.3125 1.9375 0.3125 1.9375 0 0 Z " fill="#EC363D" transform="translate(407,400)"/>
<path d="M0 0 C1.98 0.99 3.96 1.98 6 3 C5.34 3.66 4.68 4.32 4 5 C1.875 4.625 1.875 4.625 0 4 C0 2.68 0 1.36 0 0 Z " fill="#F10F0B" transform="translate(455,477)"/>
<path d="M0 0 C1.5625 1.1875 1.5625 1.1875 3 3 C2.6875 5.6875 2.6875 5.6875 2 8 C1.01 7.34 0.02 6.68 -1 6 C-0.67 4.02 -0.34 2.04 0 0 Z " fill="#F93C45" transform="translate(421,372)"/>
<path d="M0 0 C1.65 1.65 3.3 3.3 5 5 C3.02 5.99 3.02 5.99 1 7 C0.67 4.69 0.34 2.38 0 0 Z " fill="#F44753" transform="translate(413,362)"/>
<path d="M0 0 C2.31 0.66 4.62 1.32 7 2 C7.33 3.32 7.66 4.64 8 6 C4.63408134 4.55746343 2.48952921 2.66735273 0 0 Z " fill="#EB7277" transform="translate(357,349)"/>
<path d="M0 0 C4.455 1.98 4.455 1.98 9 4 C5.71023192 5.09658936 4.28696233 4.79953138 1 4 C0.67 2.68 0.34 1.36 0 0 Z " fill="#F24B55" transform="translate(353,314)"/>
<path d="M0 0 C1.98 1.65 3.96 3.3 6 5 C5.67 5.66 5.34 6.32 5 7 C4.01 6.67 3.02 6.34 2 6 C0.8125 2.9375 0.8125 2.9375 0 0 Z " fill="#BBB5B2" transform="translate(424,257)"/>
<path d="" fill="#CFFFFD" transform="translate(0,0)"/>
<path d="" fill="#CDFDF5" transform="translate(0,0)"/>
<path d="M0 0 C2 1 2 1 2 1 Z " fill="#C8FEF0" transform="translate(169,356)"/>
<path d="" fill="#D0FFFF" transform="translate(0,0)"/>
<path d="" fill="#D0FFFE" transform="translate(0,0)"/>
<path d="" fill="#CAFFFF" transform="translate(0,0)"/>
<path d="" fill="#BFFFEF" transform="translate(0,0)"/>
<path d="" fill="#C3FFF4" transform="translate(0,0)"/>
<path d="" fill="#D1FBF3" transform="translate(0,0)"/>
<path d="" fill="#CCFFFD" transform="translate(0,0)"/>
<path d="" fill="#CFFFFF" transform="translate(0,0)"/>
<path d="" fill="#CCFFF1" transform="translate(0,0)"/>
</svg>
